<svg width="22" height="22" viewBox="0 0 22 22" fill="none" xmlns="http://www.w3.org/2000/svg">
<path d="M1 15C4.82356 12.9171 4.82356 10.9503 1.95589 8M21 15C17.1764 12.9171 17.1764 10.9503 20.0441 8M5.57556 6.42444C5.57556 3.42861 8.00416 1 11 1C13.9958 1 16.4244 3.42861 16.4244 6.42444C16.4244 11.1722 16.6611 13.5456 21 15.4444C18.7778 16 18.2222 16.5556 17.6667 18.7778C13.7778 18.7778 13.2222 21 11 21C8.77778 21 8.22222 18.7778 4.33333 18.7778C3.77778 16.5556 3.22222 16 1 15.4444C5.33889 13.5456 5.57556 11.1722 5.57556 6.42444Z" stroke="#141B34" stroke-width="1.5" stroke-linecap="round" stroke-linejoin="round"/>
</svg>
